<?xml version="1.0" standalone="no"?><!DOCTYPE svg PUBLIC "-//W3C//DTD SVG 1.1//EN" "http://www.w3.org/Graphics/SVG/1.1/DTD/svg11.dtd"><svg t="1590760412527" class="icon" viewBox="0 0 1450 1024" version="1.1" xmlns="http://www.w3.org/2000/svg" p-id="939" xmlns:xlink="http://www.w3.org/1999/xlink" width="566.40625" height="400"><defs><style type="text/css"></style></defs><path d="M1240.461615814209 395.44878656005864c0 0.6867680053710937-0.6867680053710937 1.3735360107421875 0 0 10.988289733886718-82.41217547607422-26.09718914794922-250.6703672790527-45.326696594238285-280.2013964538574-19.229507446289062-29.531029174804683-43.26639175415039-30.904566009521485-73.48418975830079-15.10889859008789-22.663348297119143 11.675058563232422-79.66510263061524 48.76053744506836-135.98008895874023 103.70198693847657C897.0775513305664 171.56237643432615 795.4358684082031 152.33286898803715 687.6132726135253 152.33286898803715s-209.46427954101563 18.54273944091797-297.3705998840332 51.507609466552736c-57.00175433349609-54.94145031738282-114.00350949096679-92.02692919921876-136.66685778808593-103.70198693847657-30.904566009521485-15.795666595458984-54.25468231201172-14.422130584716797-73.48418975830079 15.10889859008789-19.229507446289062 29.531029174804683-57.00175433349609 197.78922097778317-45.326696594238285 279.5146284484863 0 1.3735360107421875 0 0.6867680053710937 0 0C105.92066659545901 440.7754831542969 90.125 490.9095566101074 90.125 543.1039349060057c0 215.6451924133301 267.1528018798828 390.77106509399414 597.4882726135253 390.77106509399414 329.6487019042969 0 597.4882726135253-175.12587268066406 597.4882717895507-390.77106509399414-0.6867680053710937-52.19437747192382-16.482435424804684-102.32845092773437-44.63992858886719-147.65514834594728z" fill="#dbdbdb" p-id="940"></path></svg>